<svg width="54" height="20" viewBox="0 0 54 20" fill="none" xmlns="http://www.w3.org/2000/svg">
<path d="M0.792 20V19.04C1.336 19.024 1.768 18.976 2.088 18.896C2.424 18.816 2.68 18.68 2.856 18.488C3.048 18.296 3.176 18.024 3.24 17.672C3.304 17.32 3.336 16.864 3.336 16.304V5.216C3.336 4.656 3.312 4.208 3.264 3.872C3.216 3.52 3.112 3.248 2.952 3.056C2.808 2.848 2.6 2.712 2.328 2.648C2.072 2.568 1.728 2.512 1.296 2.48V1.52H9C11.416 1.52 13.272 1.912 14.568 2.696C15.88 3.464 16.536 4.568 16.536 6.008C16.536 7.912 15.168 9.256 12.432 10.04V10.136C13.312 10.136 14.104 10.264 14.808 10.52C15.528 10.76 16.136 11.104 16.632 11.552C17.128 12 17.512 12.528 17.784 13.136C18.056 13.744 18.192 14.408 18.192 15.128C18.192 15.944 17.992 16.656 17.592 17.264C17.208 17.872 16.648 18.384 15.912 18.8C14.488 19.6 12.528 20 10.032 20H0.792ZM10.2 18.536C12.776 18.536 14.064 17.376 14.064 15.056C14.064 13.632 13.6 12.592 12.672 11.936C12.192 11.6 11.568 11.36 10.8 11.216C10.048 11.072 9.12 11 8.016 11H6.864V15.8C6.864 16.792 7.12 17.496 7.632 17.912C8.144 18.328 9 18.536 10.2 18.536ZM8.28 9.56C9 9.56 9.624 9.496 10.152 9.368C10.68 9.224 11.128 9.024 11.496 8.768C12.264 8.24 12.648 7.416 12.648 6.296C12.648 5.128 12.36 4.288 11.784 3.776C11.208 3.248 10.28 2.984 9 2.984H7.296C7.008 2.984 6.864 3.12 6.864 3.392V9.56H8.28ZM25.293 16.064C25.293 16.704 25.317 17.216 25.365 17.6C25.413 17.984 25.509 18.28 25.653 18.488C25.797 18.696 26.005 18.84 26.277 18.92C26.549 18.984 26.917 19.024 27.381 19.04V20H19.821V19.04C20.269 19.024 20.629 18.976 20.901 18.896C21.189 18.8 21.405 18.656 21.549 18.464C21.709 18.256 21.813 17.976 21.861 17.624C21.925 17.256 21.957 16.792 21.957 16.232V13.28C21.957 12.352 21.941 11.592 21.909 11C21.877 10.392 21.837 9.976 21.789 9.752C21.709 9.352 21.525 9.088 21.237 8.96C20.965 8.832 20.461 8.768 19.725 8.768V7.952L25.293 7.04V16.064ZM21.765 1.952C21.765 1.424 21.941 0.983999 22.293 0.631999C22.661 0.263999 23.101 0.079999 23.613 0.079999C24.141 0.079999 24.581 0.263999 24.933 0.631999C25.301 0.983999 25.485 1.424 25.485 1.952C25.485 2.464 25.301 2.904 24.933 3.272C24.581 3.624 24.141 3.8 23.613 3.8C23.101 3.8 22.661 3.624 22.293 3.272C21.941 2.904 21.765 2.464 21.765 1.952ZM33.9649 16.088C33.9649 16.744 33.9809 17.264 34.0129 17.648C34.0609 18.016 34.1489 18.304 34.2769 18.512C34.4209 18.704 34.6289 18.832 34.9009 18.896C35.1889 18.96 35.5729 19.008 36.0529 19.04V20H28.4929V19.04C28.9569 19.008 29.3249 18.96 29.5969 18.896C29.8849 18.832 30.1009 18.704 30.2449 18.512C30.4049 18.32 30.5089 18.048 30.5569 17.696C30.6049 17.344 30.6289 16.864 30.6289 16.256V13.256C30.6289 12.312 30.6129 11.552 30.5809 10.976C30.5489 10.384 30.5089 9.984 30.4609 9.776C30.4129 9.568 30.3489 9.4 30.2689 9.272C30.1889 9.128 30.0689 9.024 29.9089 8.96C29.7489 8.88 29.5489 8.832 29.3089 8.816C29.0689 8.784 28.7649 8.768 28.3969 8.768V7.952L33.0289 7.04L33.3409 9.152H33.4369C33.9649 8.48 34.5889 7.96 35.3089 7.592C36.0289 7.224 36.8209 7.04 37.6849 7.04C38.7089 7.04 39.5329 7.184 40.1569 7.472C40.7969 7.744 41.3649 8.208 41.8609 8.864C42.1329 9.232 42.3729 9.712 42.5809 10.304C42.7889 10.88 42.8929 11.68 42.8929 12.704V16.088C42.8929 16.744 42.9089 17.264 42.9409 17.648C42.9889 18.016 43.0769 18.304 43.2049 18.512C43.3489 18.704 43.5569 18.832 43.8289 18.896C44.1009 18.96 44.4689 19.008 44.9329 19.04V20H37.4209V19.04C37.9009 19.024 38.2769 18.984 38.5489 18.92C38.8369 18.84 39.0529 18.704 39.1969 18.512C39.3409 18.32 39.4369 18.048 39.4849 17.696C39.5329 17.328 39.5569 16.848 39.5569 16.256V12.992C39.5569 12.176 39.5089 11.488 39.4129 10.928C39.3169 10.368 39.1569 9.92 38.9329 9.584C38.7249 9.232 38.4449 8.984 38.0929 8.84C37.7409 8.68 37.3009 8.6 36.7729 8.6C36.2609 8.6 35.8209 8.744 35.4529 9.032C35.0849 9.32 34.7649 9.72 34.4929 10.232C34.3489 10.52 34.2209 10.896 34.1089 11.36C34.0129 11.808 33.9649 12.28 33.9649 12.776V16.088ZM51.4024 16.064C51.4024 16.704 51.4264 17.216 51.4744 17.6C51.5224 17.984 51.6184 18.28 51.7624 18.488C51.9064 18.696 52.1144 18.84 52.3864 18.92C52.6584 18.984 53.0264 19.024 53.4904 19.04V20H45.9304V19.04C46.3784 19.024 46.7384 18.976 47.0104 18.896C47.2984 18.8 47.5144 18.656 47.6584 18.464C47.8184 18.256 47.9224 17.976 47.9704 17.624C48.0344 17.256 48.0664 16.792 48.0664 16.232V13.28C48.0664 12.352 48.0504 11.592 48.0184 11C47.9864 10.392 47.9464 9.976 47.8984 9.752C47.8184 9.352 47.6344 9.088 47.3464 8.96C47.0744 8.832 46.5704 8.768 45.8344 8.768V7.952L51.4024 7.04V16.064ZM47.8744 1.952C47.8744 1.424 48.0504 0.983999 48.4024 0.631999C48.7704 0.263999 49.2104 0.079999 49.7224 0.079999C50.2504 0.079999 50.6904 0.263999 51.0424 0.631999C51.4104 0.983999 51.5944 1.424 51.5944 1.952C51.5944 2.464 51.4104 2.904 51.0424 3.272C50.6904 3.624 50.2504 3.8 49.7224 3.8C49.2104 3.8 48.7704 3.624 48.4024 3.272C48.0504 2.904 47.8744 2.464 47.8744 1.952Z" fill="#F4F4F1"/>
</svg>
