<svg width="27" height="36" viewBox="0 0 27 36" fill="none" xmlns="http://www.w3.org/2000/svg">
<path d="M6.90446 26.9366C6.42183 24.868 4.24433 23.1763 3.35058 22.0616C1.82014 20.1495 0.860997 17.8439 0.583636 15.4104C0.306275 12.977 0.721982 10.5147 1.78287 8.30719C2.84376 6.09968 4.50666 4.23677 6.58003 2.93305C8.65341 1.62933 11.0529 0.93784 13.5021 0.938233C15.9513 0.938625 18.3505 1.63088 20.4235 2.93527C22.4965 4.23965 24.1588 6.1031 25.2189 8.31094C26.2791 10.5188 26.694 12.9812 26.4159 15.4146C26.1378 17.8479 25.1779 20.1532 23.6468 22.0648C22.7531 23.178 20.5788 24.8696 20.0962 26.9366H6.90446ZM20.0003 30.1866V31.8116C20.0003 32.6736 19.6579 33.5002 19.0484 34.1097C18.4389 34.7192 17.6123 35.0616 16.7503 35.0616H10.2503C9.38838 35.0616 8.56173 34.7192 7.95223 34.1097C7.34274 33.5002 7.00033 32.6736 7.00033 31.8116V30.1866H20.0003ZM15.1253 13.9447V7.4366L7.81283 17.1947H11.8753V23.6947L19.1878 13.9447H15.1253Z" fill="#282828"/>
</svg>
