<svg width="26" height="35" viewBox="0 0 26 35" fill="none" xmlns="http://www.w3.org/2000/svg">
<path d="M6.40446 26.4367C5.92183 24.3681 3.74433 22.6765 2.85058 21.5617C1.32014 19.6496 0.360997 17.344 0.083636 14.9105C-0.193725 12.4771 0.221982 10.0148 1.28287 7.80731C2.34376 5.5998 4.00666 3.73689 6.08003 2.43317C8.15341 1.12945 10.5529 0.437962 13.0021 0.438355C15.4513 0.438747 17.8505 1.13101 19.9235 2.43539C21.9965 3.73978 23.6588 5.60322 24.7189 7.81106C25.7791 10.0189 26.194 12.4813 25.9159 14.9147C25.6378 17.348 24.6779 19.6533 23.1468 21.565C22.2531 22.6781 20.0788 24.3697 19.5962 26.4367H6.40446ZM19.5003 29.6867V31.3117C19.5003 32.1737 19.1579 33.0003 18.5484 33.6098C17.9389 34.2193 17.1123 34.5617 16.2503 34.5617H9.75033C8.88838 34.5617 8.06173 34.2193 7.45223 33.6098C6.84274 33.0003 6.50033 32.1737 6.50033 31.3117V29.6867H19.5003ZM14.6253 13.4448V6.93672L7.31283 16.6948H11.3753V23.1948L18.6878 13.4448H14.6253Z" fill="#F4F4F1"/>
</svg>
